<svg xmlns="http://www.w3.org/2000/svg" width="346.667" height="346.667" preserveAspectRatio="xMidYMid meet" version="1.0" viewBox="0 0 260 260"><metadata>Created by potrace 1.14, written by Peter Selinger 2001-2017</metadata><g fill="#000" stroke="none"><path d="M0 1300 l0 -1300 1300 0 1300 0 0 1300 0 1300 -1300 0 -1300 0 0 -1300z m1450 845 c39 -20 65 -58 139 -198 62 -119 87 -203 107 -367 4 -30 29 -115 56 -189 27 -74 56 -162 64 -195 8 -34 30 -117 49 -186 29 -106 35 -143 36 -245 3 -136 -8 -171 -64 -206 -38 -24 -102 -21 -143 6 -39 25 -63 89 -65 170 -2 108 -6 117 -69 139 -43 15 -99 21 -255 27 -110 4 -211 10 -225 14 -25 6 -28 2 -62 -77 -20 -46 -44 -112 -53 -148 -25 -98 -55 -143 -117 -174 -93 -46 -171 -28 -209 50 -26 55 -21 94 21 146 17 21 43 75 59 120 16 46 48 128 71 183 23 55 55 136 70 180 37 108 148 372 198 470 22 44 49 115 61 157 43 157 128 301 195 328 34 14 105 11 136 -5z" transform="translate(0.000000,260.000000) scale(0.100000,-0.100000)"/><path d="M1369 1683 c-6 -21 -32 -78 -57 -128 -51 -103 -152 -342 -152 -362 0 -10 39 -13 179 -13 99 0 182 3 184 8 3 4 -17 66 -45 137 -35 92 -52 153 -58 210 -9 80 -29 185 -35 185 -2 0 -9 -17 -16 -37z" transform="translate(0.000000,260.000000) scale(0.100000,-0.100000)"/></g></svg>